<svg width="21" height="18" viewBox="0 0 21 18" fill="none" xmlns="http://www.w3.org/2000/svg">
<path d="M16.7344 3.21429C16.7344 3.74665 17.1753 4.17857 17.7188 4.17857C18.2622 4.17857 18.7031 3.74665 18.7031 3.21429C18.7031 2.68192 18.2622 2.25 17.7188 2.25C17.1753 2.25 16.7344 2.68192 16.7344 3.21429ZM17.7188 6.42857C16.3734 6.42857 15.2168 5.63705 14.7123 4.5L13.125 4.5C12.399 4.5 11.8125 5.07455 11.8125 5.78571V12.2143C11.8125 12.9254 12.399 13.5 13.125 13.5H14.7123C15.2168 12.3629 16.3734 11.5714 17.7188 11.5714C19.5316 11.5714 21 13.0098 21 14.7857C21 16.5616 19.5316 18 17.7188 18C16.3734 18 15.2168 17.2085 14.7123 16.0714H13.125C10.9512 16.0714 9.1875 14.3438 9.1875 12.2143V10.2857L6.28769 10.2857C5.7832 11.4228 4.62656 12.2143 3.28125 12.2143C1.46836 12.2143 0 10.7759 0 9C0 7.22411 1.46836 5.78571 3.28125 5.78571C4.62656 5.78571 5.7832 6.57723 6.28769 7.71429H9.1875V5.78571C9.1875 3.65625 10.9512 1.92857 13.125 1.92857H14.7123C15.2168 0.791518 16.3734 0 17.7188 0C19.5316 0 21 1.43839 21 3.21429C21 4.99018 19.5316 6.42857 17.7188 6.42857ZM16.7344 14.7857C16.7344 15.3181 17.1753 15.75 17.7188 15.75C18.2622 15.75 18.7031 15.3181 18.7031 14.7857C18.7031 14.2533 18.2622 13.8214 17.7188 13.8214C17.1753 13.8214 16.7344 14.2533 16.7344 14.7857ZM3.28125 9.96429C3.82471 9.96429 4.26562 9.53237 4.26562 9C4.26562 8.46763 3.82471 8.03571 3.28125 8.03571C2.73779 8.03571 2.29688 8.46763 2.29688 9C2.29688 9.53237 2.73779 9.96429 3.28125 9.96429Z" fill="white"/>
</svg>
