<svg width="17" height="19" viewBox="0 0 17 19" fill="none" xmlns="http://www.w3.org/2000/svg">
<path d="M16.6092 15.0738L12.1429 7.9748V2.375C12.8145 2.375 13.3571 1.84434 13.3571 1.1875C13.3571 0.530664 12.8145 0 12.1429 0H4.85714C4.18549 0 3.64286 0.530664 3.64286 1.1875C3.64286 1.84434 4.18549 2.375 4.85714 2.375V7.9748L0.390848 15.0738C0.136607 15.482 0 15.9496 0 16.4246C0 17.8459 1.18013 19 2.63348 19H14.3665C15.8199 19 17 17.8459 17 16.4246C17 15.9459 16.8634 15.4783 16.6092 15.0738ZM5.25558 11.875L7.10737 8.93594C7.225 8.74668 7.28571 8.53145 7.28571 8.3125V2.375H9.71429V8.3125C9.71429 8.53516 9.775 8.75039 9.89263 8.93594L11.7444 11.875H5.25558Z" fill="black"/>
</svg>
