<svg width="23" height="22" viewBox="0 0 23 22" fill="none" xmlns="http://www.w3.org/2000/svg">
<g clip-path="url(#clip0_16_49)">
<path d="M16.4477 10.1763C16.471 10.3377 16.503 10.4991 16.5408 10.6522C16.5525 10.6577 16.5554 10.6716 16.5612 10.6856C16.6019 10.9026 16.6659 11.1002 16.7358 11.2393C16.7416 11.2393 16.7445 11.2393 16.7532 11.2393L16.7707 11.2783C16.7707 11.2783 16.759 11.2755 16.7532 11.2727C16.8201 11.3924 16.89 11.4619 16.9627 11.4508C16.9685 11.4592 16.9773 11.4647 16.986 11.4731C16.9162 11.5565 16.9685 11.5148 17.0122 11.4981C17.0209 11.5065 17.0325 11.5148 17.0413 11.5232C17.0413 11.5343 17.0354 11.5454 17.0267 11.5649C17.0325 11.551 17.0413 11.5398 17.0471 11.5287C17.0965 11.5705 17.1489 11.6039 17.2042 11.6317C17.2013 11.6567 17.1955 11.6762 17.1926 11.704C17.1926 11.704 17.2071 11.679 17.2275 11.6428C17.3031 11.6762 17.3846 11.6957 17.469 11.6985C18.0683 11.7096 18.2866 11.3228 18.2982 10.8163C18.6444 10.4323 18.4117 9.43056 17.8239 9.0382C17.7803 8.94916 17.7337 8.87124 17.6901 8.79889C17.7163 8.79333 17.6843 8.74324 17.6144 8.6848C17.5737 8.62915 17.5359 8.57906 17.4981 8.54567C17.3089 8.36201 17.1111 8.38427 16.9307 8.50671C16.9423 8.48445 16.9482 8.47053 16.9482 8.47053C16.922 8.49558 16.8987 8.52062 16.8754 8.54845C16.6892 8.69872 16.5263 8.94916 16.4157 9.17177C16.3401 9.33039 16.2935 9.46674 16.2819 9.55022C16.2586 9.71718 16.3372 9.95371 16.4477 10.1791V10.1763ZM17.4137 10.7217C17.4748 10.6911 17.5359 10.6438 17.5912 10.5826C17.5708 10.6772 17.5359 10.769 17.4835 10.8609C17.4661 10.8191 17.4428 10.7718 17.4137 10.7217Z" fill="#FF9D00"/>
<path d="M20.626 4.18796C19.631 2.90514 18.31 1.98406 16.7738 1.37465C16.3548 1.20769 12.5986 -0.0361751 12.4473 0.445231C12.4385 0.475841 12.6422 0.562105 12.9506 0.676195C12.9303 0.676195 12.9186 0.676195 12.9157 0.681761C12.9099 0.704022 12.9419 0.729067 12.9943 0.756894C12.8168 0.698457 12.6451 0.656716 12.5782 0.673413C12.6568 0.653934 14.7749 1.96458 14.9669 1.58057C15.6216 1.72527 15.7933 2.19276 16.7301 2.13989C16.8611 2.13433 16.6108 2.00076 16.4363 1.91728C16.8494 2.11207 17.248 2.32633 17.6321 2.56286C17.379 2.78548 17.9201 2.93018 18.3566 3.04705C18.4817 3.13888 18.601 3.23628 18.7203 3.33645C18.6563 3.37263 18.5835 3.40046 18.5835 3.40046C18.6999 3.57298 19.0869 3.78725 19.4331 4.00708C19.5029 4.08222 19.5757 4.15178 19.6397 4.2297C19.7706 4.37996 19.8928 4.53858 20.0121 4.70276C19.9597 4.96711 20.3031 5.27043 20.4835 5.42348C20.5067 5.46243 20.5329 5.50139 20.5562 5.54313C20.6522 5.89653 21.0188 7.34075 21.4582 7.61902C21.5309 7.8472 21.5978 8.07539 21.656 8.30913C21.6327 8.44549 21.6211 8.59853 21.6735 8.78776C21.7113 8.77106 21.7375 8.75993 21.7637 8.75436C21.784 8.84898 21.8015 8.94359 21.8189 9.0382C21.7637 9.25525 21.9586 9.6003 21.9295 9.83962C21.9353 9.83405 21.944 9.82849 21.9499 9.82014C21.9528 9.85353 21.9615 9.88414 21.9644 9.91753C21.9528 9.91753 21.947 9.91475 21.9353 9.91475C21.9702 10.2236 21.9993 10.4407 22.0284 10.5909C22.0342 10.6633 22.0372 10.7356 22.0401 10.808C22.0313 10.808 22.0255 10.808 22.0168 10.8024C21.8393 11.3339 21.8568 11.5705 22.0604 11.5204C22.0604 11.5649 22.0604 11.6094 22.0604 11.6539C22.0488 11.6484 22.043 11.6428 22.0313 11.6372C22.0197 11.896 22.0139 12.1242 22.0255 12.3357C22.0168 12.4442 22.0081 12.55 21.9964 12.6557C21.9557 13.0175 21.8917 13.3709 21.8073 13.7187C21.6356 13.7883 21.5222 13.9135 21.6589 14.2057C21.6647 14.1973 21.6735 14.1918 21.6822 14.1834C21.5949 14.4784 21.4902 14.7678 21.3738 15.0488C21.1963 15.277 21.0537 15.5525 20.8937 15.8586C20.9199 15.8725 20.9461 15.8836 20.9693 15.8975C20.7104 16.379 20.4107 16.8381 20.0732 17.2666C20.0616 17.2444 20.047 17.2221 20.0296 17.1999C19.8375 17.4447 19.663 17.7146 19.4709 17.9679C19.116 18.3463 18.729 18.6969 18.3187 19.0197C17.9492 19.2924 17.5826 19.5484 17.2044 19.7878C16.3083 20.3248 15.3306 20.7367 14.3065 21.0038C14.3065 20.9982 14.3065 20.9927 14.3036 20.9871C14.065 21.0316 13.5704 21.1262 13.4773 21.1652C13.4802 21.1708 13.486 21.1763 13.4918 21.1819C13.2503 21.2236 13.0117 21.2626 12.7673 21.2904C12.616 21.257 12.4822 21.2348 12.4298 21.2375C12.4967 21.2542 12.5404 21.2793 12.5607 21.3099C12.1185 21.3489 11.6733 21.3655 11.2224 21.3489C11.2282 21.3377 11.2282 21.3238 11.234 21.3127C11.0129 21.2988 10.7976 21.257 10.5881 21.1902C10.6143 21.2153 10.6346 21.2598 10.6463 21.3127C10.2768 21.2793 9.90724 21.2264 9.53772 21.1513C9.45626 21.1346 9.38061 21.1151 9.29914 21.0984C9.0431 20.9927 8.62703 20.8786 8.33026 20.8313C8.09168 20.7534 7.85891 20.6671 7.62615 20.5753C7.53013 20.3833 7.37593 20.2552 7.17808 20.3805C4.3529 19.081 2.19402 16.621 1.28042 13.7549C1.19604 13.0703 1.0913 12.3886 0.893448 12.0324C0.843986 11.6512 0.809071 11.2644 0.803252 10.8776C0.762518 8.16722 1.89724 5.404 3.89029 3.46446C3.99212 3.37819 4.09395 3.29193 4.20452 3.21401C4.19288 3.21401 4.18415 3.20567 4.17251 3.20288C4.21906 3.16114 4.26271 3.1194 4.30635 3.08045C4.33254 3.05818 4.36163 3.03592 4.38782 3.01644C4.54493 2.97749 4.71078 2.83835 5.01919 2.61573C5.39161 2.34581 5.77858 2.29851 5.70294 2.10094C5.75531 2.07033 5.80477 2.03972 5.85714 2.00911C5.86296 2.02302 5.86878 2.03415 5.87751 2.04806C6.22957 1.85049 6.54962 1.71692 6.75037 1.53327C6.86676 1.47483 6.98314 1.42196 7.10243 1.3663C7.10243 1.37743 7.10243 1.38578 7.09661 1.3997C7.20135 1.35796 7.30319 1.31622 7.40793 1.27169C7.3992 1.26056 7.38757 1.25221 7.37884 1.24108C7.41666 1.22439 7.45449 1.20769 7.49231 1.19099C7.49231 1.20491 7.49522 1.21882 7.49231 1.23552C8.72887 0.684543 10.0353 0.901594 11.2544 0.478624C11.4464 0.406274 11.2224 0.314445 10.8907 0.228181C11.0565 0.214268 11.2194 0.20592 11.3707 0.208702C11.1845 0.203137 11.0012 0.203137 10.815 0.208702C10.3815 0.0890463 9.79958 0 9.72684 0C9.33988 0 9.06929 0.0528712 8.84816 0.139135C8.97909 0.1447 9.11002 0.147483 9.24095 0.153048C9.03146 0.300531 8.88598 0.322793 8.80452 0.228181C8.78997 0.211485 8.78124 0.194789 8.77251 0.172527C8.50483 0.2894 8.30407 0.448014 8.0393 0.595497C7.74544 0.676195 7.4574 0.765242 7.17226 0.868201C7.14607 0.818113 6.98605 0.818113 7.05879 0.665065C6.79111 0.765242 5.42362 1.3997 5.4789 1.44144C5.6622 1.38022 5.83968 1.30787 6.01426 1.22717C5.50509 1.45813 3.76517 2.17329 3.63715 2.69643C3.69826 2.73817 3.75354 2.77435 3.80591 2.80774C3.77681 2.83279 3.74772 2.85783 3.71862 2.88287C3.68662 2.83279 3.65461 2.7827 3.63134 2.72148C3.25891 3.45054 2.78466 3.52289 2.33077 4.32988C2.05145 4.6805 1.79541 5.05059 1.55974 5.43739C1.38516 5.65166 1.21641 5.87149 1.10585 6.11637C0.937091 6.48368 0.200975 8.20061 0.206794 8.91854C0.180608 9.0549 0.154422 9.19403 0.131146 9.33317C-0.471131 13.1093 0.966187 16.685 3.67498 19.0698C3.83209 19.2618 3.98048 19.465 4.12596 19.7098C4.2598 19.9408 4.69623 19.9575 4.95809 20.0465C6.22957 20.8786 7.69598 21.4824 9.31078 21.7829C15.9533 23.0212 22.1332 18.8917 22.9217 12.358C23.2679 9.48621 22.4241 6.51151 20.6231 4.19074L20.626 4.18796ZM6.06954 1.22439C6.15683 1.2216 6.2412 1.21604 6.32849 1.21326C6.27612 1.23552 6.22666 1.26056 6.17719 1.28561C6.14228 1.26613 6.10445 1.24665 6.06954 1.22439ZM13.5064 0.937769C13.5064 0.937769 13.5267 0.943334 13.5296 0.946117C13.5238 0.946117 13.5151 0.943334 13.5064 0.937769ZM20.9082 6.31394C20.9082 6.31394 20.9257 6.29168 20.9373 6.28055C20.9432 6.29168 20.949 6.30281 20.9519 6.31394C20.9373 6.31394 20.9228 6.31394 20.9082 6.31394Z" fill="#FF9D00"/>
<path d="M6.68325 9.86186C6.66579 9.97874 6.63088 10.09 6.57851 10.1986C6.49413 10.1819 6.84909 9.36098 6.34865 9.21906C6.32538 9.27193 6.31374 9.32759 6.30792 9.38602C6.27591 9.29419 6.23809 9.21071 6.19445 9.14114C6.35447 9.36654 6.19736 9.04653 6.17408 9.02427C6.24391 9.02427 6.29337 9.02984 6.32829 9.04653C6.32538 9.03818 6.31956 9.02984 6.31374 9.01871C6.22936 8.91575 6.11298 8.79053 6.08679 8.77661C6.40684 8.7627 5.62999 8.54287 5.27212 8.62635C5.10627 8.82948 4.71639 9.37489 4.65529 9.2135C4.63202 9.31089 4.62911 9.49455 4.64366 9.71438C4.63493 9.68934 4.60874 9.65873 4.59128 9.67542C4.57674 9.68655 4.62038 9.76725 4.64366 9.74221C4.66402 9.99543 4.70185 10.3043 4.76004 10.5937C4.68439 11.32 4.87642 11.9628 5.80166 11.6317C5.92386 11.5871 6.0286 11.5064 6.11298 11.4007C6.35447 11.3311 6.61924 11.1976 6.49122 11.1085C6.42139 11.1057 6.37193 11.1336 6.33992 11.192C6.3923 11.1002 6.50577 10.7829 6.59305 10.4824C6.58433 10.4101 6.60469 10.3767 6.61924 10.3878C6.6978 10.104 6.74435 9.85908 6.68034 9.86465L6.68325 9.86186ZM6.47085 9.32759C6.47085 9.32759 6.48249 9.32759 6.44176 9.3415C6.25264 9.29976 6.55232 9.28028 6.47085 9.32759ZM4.79495 10.0733C4.7804 10.1012 4.82405 10.0845 4.79495 10.0733V10.0733ZM4.81823 9.95369L4.85605 9.97874C4.88515 10.0149 4.80368 9.98152 4.81823 9.95369ZM5.84821 10.8692C5.83366 10.8247 5.81911 10.7829 5.80748 10.7384C5.83948 10.6995 5.87149 10.6521 5.90349 10.5965C5.89767 10.6967 5.88021 10.7885 5.84821 10.8692ZM6.38357 9.57803C6.31956 9.41107 6.38357 9.45559 6.38357 9.57803V9.57803ZM6.12171 9.00201L6.09261 8.97418C6.13335 8.94914 6.14498 8.96027 6.12171 9.00201ZM5.57471 8.70426C5.55434 8.70426 5.54562 8.68478 5.5398 8.64582C5.55144 8.64582 5.6009 8.70983 5.57471 8.70426ZM5.26921 8.74044C5.13246 8.96305 5.37686 8.60965 5.26921 8.74044V8.74044ZM5.26921 9.00201C5.26921 9.00201 5.27794 8.98253 5.28376 8.97418C5.28085 8.97975 5.27794 8.9881 5.27503 8.99366C5.34486 8.87401 5.42341 8.74878 5.42341 8.74878C5.45251 8.746 5.64163 8.81279 5.82202 8.89905C5.76092 8.90462 5.69691 8.92966 5.62999 8.97418C5.48452 8.92966 5.33613 8.97418 5.20811 9.16341C5.19938 9.17454 5.19356 9.18845 5.18483 9.20236C5.21684 9.13001 5.24302 9.06045 5.2663 9.01592C5.2372 9.07436 5.2052 9.13558 5.1761 9.19402C5.1761 9.17175 5.22266 9.09106 5.27212 9.00201H5.26921ZM5.07718 9.15784C5.05681 9.15784 5.04226 9.14949 5.03935 9.12723C5.07427 9.12445 5.08591 9.13558 5.07718 9.15784ZM5.07136 9.23297C4.99862 9.17454 5.0539 9.27471 5.07136 9.23297V9.23297ZM4.95498 9.56411C4.96953 9.59194 4.99571 9.57525 5.02481 9.53072C4.99862 9.59472 4.97534 9.66429 4.94916 9.73664C4.93461 9.72829 4.9317 9.68377 4.95498 9.56411ZM4.92297 9.7756C4.8997 9.80064 4.88224 9.80064 4.8706 9.76447C4.88515 9.75056 4.90261 9.75334 4.92297 9.7756ZM4.8415 9.76169C4.88515 9.78117 4.87642 9.78951 4.81532 9.78673L4.8415 9.76169ZM4.8706 9.88413C4.84441 9.90917 4.81241 9.90917 4.77459 9.88134C4.80659 9.85908 4.8386 9.86186 4.8706 9.88413ZM5.27794 11.0139C5.27794 10.9916 5.27794 10.9666 5.27794 10.9443C5.37395 11.0167 5.4787 11.0779 5.57471 11.1196C5.42341 11.1669 5.3274 11.1196 5.27794 11.0167V11.0139ZM6.38939 10.8358C6.38939 10.8358 6.37484 10.8386 6.3632 10.8358C6.41266 10.6327 6.43303 10.4073 6.43012 10.1874C6.49704 10.4574 6.53486 10.6995 6.38939 10.833V10.8358ZM6.45049 9.42498C6.41266 9.43333 6.46794 9.36098 6.47667 9.35541C6.55523 9.38602 6.5465 9.41107 6.45049 9.42498ZM6.56105 9.63925C6.49413 9.39994 6.62215 9.60307 6.56105 9.63925V9.63925Z" fill="#FF9D00"/>
<path d="M11.4927 14.6899C11.4403 14.7149 11.385 14.7344 11.3269 14.7511C11.2978 14.7511 11.2658 14.7566 11.2367 14.7566C10.9952 14.7511 10.6606 14.6926 10.5675 14.6565C10.5558 14.8067 10.4773 14.8151 10.55 14.6481C10.2969 14.7483 10.2038 14.7761 10.0903 14.7956C10.0961 14.7733 10.099 14.7483 10.0903 14.7316C10.0787 14.7149 10.0379 14.7622 10.0292 14.8067C9.98556 14.8151 9.93318 14.8234 9.86917 14.8346C9.5113 14.8485 9.18834 14.8513 8.94103 14.8401C8.8101 14.7594 8.61225 14.7706 8.48132 14.765C8.46677 14.7566 8.45513 14.7455 8.44931 14.7344C8.45513 14.7455 8.46095 14.7539 8.46386 14.765C8.4144 14.765 8.37366 14.7566 8.3533 14.74C8.27474 14.6732 7.93141 14.9292 7.89359 15.0906C7.90814 15.0099 7.90523 14.9264 7.88486 14.8485C7.83249 15.0627 7.8063 15.0822 7.81212 14.9041C7.81212 15.2019 7.75393 15.2158 7.7132 15.341C7.71901 15.3188 7.93432 15.6415 7.88486 15.6054C7.88195 15.6054 9.6335 15.6388 10.1572 15.6221C10.1921 15.6248 10.2241 15.6276 10.2591 15.6304C9.52003 15.7501 8.97594 15.8614 9.0254 15.8642C9.49966 15.8781 13.7011 15.9532 13.928 15.5664C13.9629 15.5469 14.0095 15.4857 14.0211 15.4523C14.3382 15.4161 14.6292 15.38 14.8678 15.341C14.9027 15.4189 14.9696 15.5108 14.9434 15.3271C14.9551 15.3271 14.9667 15.3243 14.9754 15.3215C15.0249 15.4106 15.0947 15.5803 15.0511 15.5998C15.1238 15.5692 15.0918 15.2993 15.118 15.2965C15.1471 15.2965 15.1937 15.2909 15.2489 15.2881C15.2926 15.2881 15.3304 15.2854 15.3653 15.2854C15.3682 15.2687 15.377 15.252 15.3857 15.2353C15.3944 15.252 15.3973 15.2687 15.4002 15.2854C15.4846 15.2854 15.5515 15.2854 15.5573 15.2993C15.5312 15.6388 16.2207 15.0405 16.2324 15.0266C16.0171 15.0906 15.889 15.1184 15.8163 15.1295C15.8483 15.1434 15.8745 15.1796 15.8454 15.2603C15.8512 15.2436 15.5806 15.1212 15.5661 15.0878C15.6184 14.9459 15.8367 15.1017 15.9298 15.0655C16.1887 14.9653 15.473 14.7678 15.2693 14.8179C15.2431 14.7873 15.214 14.7566 15.1849 14.7316C15.1907 14.7205 15.1995 14.7093 15.2053 14.6982C15.1907 14.7038 15.1762 14.7093 15.1646 14.7149C14.6263 14.2864 13.6138 14.5006 12.994 14.5925C12.8951 14.6064 12.6565 14.6342 12.3394 14.6648C12.2434 14.6593 12.1764 14.6648 12.1183 14.6843C11.9088 14.7038 11.676 14.7233 11.4316 14.7427C11.4723 14.7316 11.4956 14.7149 11.4927 14.6899ZM7.9896 15.2353C7.94305 15.2854 7.9285 15.2575 7.95178 15.1546C7.95469 15.1601 8.09435 15.1741 7.9896 15.2353ZM8.2922 14.8847L8.24855 14.8735C8.26601 14.854 8.36784 14.7177 8.2922 14.8847ZM15.6912 15.2993L15.6272 15.1935C15.6505 15.1407 15.6795 15.1379 15.6912 15.2993ZM8.70826 15.3354C8.66753 15.5163 8.70826 15.3521 8.70826 15.3354V15.3354ZM8.69662 15.0989C8.69662 15.0989 8.69371 15.1073 8.69081 15.1128C8.58315 15.2714 8.57442 15.2548 8.66171 15.0627C8.67335 15.0739 8.68499 15.085 8.69662 15.0961V15.0989ZM8.62098 15.3132C8.60061 15.3271 8.58897 15.405 8.58024 15.3132H8.62098ZM8.47259 15.5191C8.49877 15.5275 8.71117 15.5748 8.8101 15.5775C8.70244 15.6054 8.45804 15.6527 8.47259 15.5191ZM8.87993 15.4913C8.85665 15.5135 8.89156 15.4217 8.91775 15.4412L8.87993 15.4913ZM8.88575 15.2937C8.88284 15.2742 8.87993 15.2631 8.87993 15.252C8.89447 15.2631 8.90902 15.2742 8.92648 15.2854L8.88575 15.2965V15.2937Z" fill="#FF9D00"/>
</g>
<defs>
<clipPath id="clip0_16_49">
<rect width="23" height="22" fill="white"/>
</clipPath>
</defs>
</svg>
