<svg width="24" height="24" viewBox="0 0 24 24" fill="none" xmlns="http://www.w3.org/2000/svg">
<circle cx="12" cy="12" r="11" stroke="white" stroke-width="2"/>
<path d="M10.834 13.178C10.834 12.87 10.8713 12.5947 10.946 12.352C11.0207 12.1093 11.142 11.8807 11.31 11.666C11.4873 11.4513 11.73 11.232 12.038 11.008C12.318 10.8027 12.5327 10.6207 12.682 10.462C12.8313 10.3033 12.934 10.1447 12.99 9.986C13.046 9.82733 13.074 9.65 13.074 9.454C13.074 9.15533 12.9807 8.93133 12.794 8.782C12.6073 8.62333 12.3553 8.544 12.038 8.544C11.6927 8.544 11.3333 8.60467 10.96 8.726C10.596 8.84733 10.2133 9.01067 9.812 9.216L9.014 7.718C9.47133 7.466 9.96133 7.26067 10.484 7.102C11.0067 6.94333 11.5807 6.864 12.206 6.864C13.1487 6.864 13.8767 7.09733 14.39 7.564C14.9127 8.03067 15.174 8.62333 15.174 9.342C15.174 9.72467 15.118 10.056 15.006 10.336C14.894 10.6067 14.726 10.8633 14.502 11.106C14.278 11.3487 13.9933 11.6053 13.648 11.876C13.396 12.072 13.1953 12.24 13.046 12.38C12.906 12.52 12.808 12.6553 12.752 12.786C12.696 12.9167 12.668 13.08 12.668 13.276V13.682H10.834V13.178ZM10.582 16.02C10.582 15.5907 10.7033 15.292 10.946 15.124C11.1887 14.9467 11.4827 14.858 11.828 14.858C12.164 14.858 12.4533 14.9467 12.696 15.124C12.9387 15.292 13.06 15.5907 13.06 16.02C13.06 16.4307 12.9387 16.7293 12.696 16.916C12.4533 17.0933 12.164 17.182 11.828 17.182C11.4827 17.182 11.1887 17.0933 10.946 16.916C10.7033 16.7293 10.582 16.4307 10.582 16.02Z" fill="white"/>
</svg>
