<svg width="22" height="22" viewBox="0 0 22 22" fill="none" xmlns="http://www.w3.org/2000/svg">
<g clip-path="url(#clip0_16_37)">
<path d="M14.5868 13.4307C14.5511 13.4226 14.507 13.4389 14.4575 13.4687C14.4575 13.4172 14.4575 13.3766 14.4685 13.3549C14.419 13.4362 14.364 13.512 14.3089 13.5878C14.1961 13.6989 14.0723 13.8587 13.9484 14.0212C13.4284 14.5574 12.768 14.9366 12.0745 15.2589C11.7498 15.4106 11.4912 15.5676 11.3508 15.7058C10.9931 15.6272 9.74932 14.9393 9.49066 14.7551C9.28703 14.6089 8.14232 13.4822 7.69104 13.4037C7.71855 13.3657 7.74057 13.3251 7.75433 13.2764C7.66352 13.3495 7.62499 13.3657 7.62775 13.3414C7.61399 13.363 7.60298 13.3874 7.58922 13.4118C7.55345 13.428 7.52593 13.4524 7.51493 13.5039C7.50942 13.5255 7.50942 13.5445 7.50392 13.5662C7.50117 13.5716 7.49842 13.577 7.49566 13.5824C7.49566 13.512 7.45989 13.4849 7.3911 13.5012C7.40761 13.4903 7.37459 13.8478 7.36633 13.791C7.36633 13.8018 7.41586 13.8776 7.49016 13.9914C7.55345 14.552 7.93869 15.0016 8.46152 15.3212C8.71468 15.6299 8.93481 15.8574 9.01186 15.8303C9.06965 15.8141 8.6679 15.4078 9.17696 15.7274C8.95958 15.7599 9.40811 15.9847 9.74932 16.1391C10.6491 16.1201 10.9023 16.2935 11.8104 16.2258C11.8104 16.2258 11.8186 16.2258 11.8324 16.2258C12.3222 16.1554 11.6783 16.1201 11.692 16.1391C11.7058 16.1174 11.7306 16.0985 11.7608 16.0795C11.8626 16.0795 11.9727 16.0795 12.1075 16.0687C12.1681 16.1662 12.2699 16.2474 12.3882 16.2583C12.7459 16.2881 12.9138 15.9089 13.0239 15.8981C13.0404 15.8954 13.0679 15.8791 13.1037 15.8574C13.1229 15.852 13.1422 15.8439 13.1477 15.8412C13.1835 15.8033 13.2385 15.7626 13.299 15.7166C13.4009 15.6651 13.4972 15.6056 13.5935 15.5433C13.6045 15.546 13.6292 15.5351 13.6595 15.4972C13.8686 15.3537 14.064 15.1885 14.2291 15.007C14.2731 15.0206 14.3034 15.0395 14.2952 15.0585C14.3089 15.0233 14.2952 14.9908 14.2676 14.9637C14.386 14.8228 14.4548 14.6576 14.4878 14.487C14.5758 14.487 14.6364 14.2405 14.6721 14.0266C14.8373 13.7395 14.8758 13.493 14.5923 13.4307H14.5868ZM9.63925 15.9901C9.57321 15.9685 9.72731 15.871 9.63925 15.9901V15.9901ZM9.75483 15.9847C9.74932 15.9522 9.76308 15.9306 9.79335 15.9197C9.80436 15.9712 9.79335 15.9929 9.75483 15.9847ZM10.7537 16.0443C10.7289 16.0443 10.7179 16.0118 10.7234 15.9468C10.7344 15.9468 10.7867 16.0497 10.7537 16.0443ZM10.6711 15.8764C10.8995 15.8628 11.1142 15.8276 11.3013 15.7653C11.282 15.7897 11.2683 15.8114 11.2573 15.8331C11.1307 15.8764 10.9848 15.9414 10.9161 15.9847C10.905 15.9929 10.795 15.936 10.6711 15.8737V15.8764ZM11.2985 16.1851C11.2848 15.9685 11.293 16.1716 11.2985 16.1851V16.1851ZM11.5572 16.1743C11.5737 16.0985 11.593 16.0985 11.6177 16.1689L11.5572 16.1743ZM12.5918 16.0687C12.3084 16.1174 12.424 16.1689 12.5918 16.0687V16.0687ZM12.7294 15.9874C12.7157 15.9685 12.7129 15.9604 12.7129 15.9522C12.7212 15.9522 12.7294 15.9468 12.7377 15.9441C12.7514 15.9495 12.7625 15.9685 12.7294 15.9874ZM14.5813 14.2108C14.5813 14.2108 14.5511 14.2351 14.5181 14.2514C14.5373 14.2243 14.5593 14.1945 14.5786 14.1674C14.5786 14.2026 14.5786 14.2216 14.5813 14.2108Z" fill="#60BC2A"/>
<path d="M18.907 3.3015C17.8256 2.27233 16.5103 1.50857 15.1207 0.956064C13.8741 0.460434 12.3359 0.357516 11.2297 0.00542975C11.5159 0.0948056 11.7993 0.192307 12.08 0.292516C11.7911 0.213973 11.582 0.165223 11.5737 0.189598C11.5682 0.20314 11.5792 0.216682 11.5985 0.232932C11.582 0.232932 11.5655 0.232932 11.5517 0.232932C11.4169 0.18689 11.2958 0.157098 11.2407 0.167931C11.2518 0.167931 11.304 0.192307 11.3811 0.238349C11.3316 0.238349 11.2848 0.241057 11.2352 0.243765C10.795 0.121889 10.1703 0.0135548 10.0988 0.0108465C10.0713 0.0108465 8.77246 -0.0460291 8.91555 0.0893889C8.56883 0.138139 8.2744 0.425225 7.9607 0.587727C7.81486 0.617519 7.66902 0.647311 7.52318 0.682519C7.51492 0.622936 7.33881 0.612102 7.42962 0.457726C7.15445 0.53356 5.72905 1.04273 5.78684 1.09148C5.97396 1.04544 6.15832 0.988564 6.33994 0.923563C5.80886 1.13482 4.02299 1.70628 3.87164 2.26691C3.90191 2.28858 3.92668 2.30753 3.9542 2.32649C3.93769 2.34003 3.91842 2.35629 3.90191 2.36983C3.89091 2.34274 3.8744 2.32108 3.86614 2.29399C3.80835 2.39691 3.74782 2.48087 3.68178 2.55129C3.59922 2.6217 3.51942 2.69212 3.43962 2.76796C3.14244 2.98462 2.82599 3.11463 2.62236 3.64276C1.70604 4.74777 1.01811 6.0234 0.580587 7.37758C0.440249 7.79467 0.33018 8.19551 0.288904 8.46363C0.162325 9.04593 0.0825253 9.63635 0.0495047 10.2295C-0.0578124 10.4868 0.0495047 12.2174 0.143063 12.4991C0.343939 13.7422 0.74569 14.9258 1.32355 16.0064C1.4804 16.5481 2.02799 17.2387 2.43525 17.6964C2.75445 18.0973 3.10116 18.4791 3.47264 18.8339C3.63775 19.0398 3.7946 19.2619 3.94869 19.53C4.06702 19.7385 4.43299 19.7764 4.69166 19.8496C6.56007 21.1983 8.85501 22 11.3123 22C17.4486 22 22.1155 16.9083 22.0027 10.9634C21.9504 8.17926 20.9763 5.26777 18.9125 3.3015H18.907ZM19.8426 5.70382C19.8426 5.70382 19.8564 5.72548 19.8646 5.73632C19.8509 5.73632 19.8344 5.73632 19.8206 5.74173C19.8289 5.72819 19.8344 5.71736 19.8426 5.70382ZM11.5985 0.232932C11.5985 0.232932 11.6287 0.257307 11.6508 0.268141C11.6177 0.257307 11.5875 0.246474 11.5572 0.23564C11.571 0.23564 11.5847 0.23564 11.5985 0.232932ZM9.61724 0.140848C9.39985 0.273557 9.25676 0.284391 9.18521 0.181473C9.16595 0.154389 9.15219 0.124598 9.14394 0.0866805C9.30079 0.105639 9.45763 0.121889 9.61448 0.140848H9.61724ZM8.21386 0.842313C8.13956 0.872105 8.21111 0.996689 8.16158 0.956064C8.16433 0.931688 8.13406 0.920855 8.15057 0.947939C8.13681 0.934397 8.11755 0.915438 8.09003 0.882938C8.13131 0.869396 8.17258 0.855854 8.21386 0.842313ZM6.60685 0.934397C6.56007 0.950647 6.5133 0.966897 6.46652 0.983147C6.439 0.964189 6.41148 0.942522 6.38672 0.920855C6.46101 0.926272 6.53531 0.92898 6.60961 0.934397H6.60685ZM21.3808 11.1585C21.3286 11.126 21.2735 11.0935 21.2047 11.061C21.1937 11.5403 21.2047 11.9276 21.2955 12.2635C21.257 12.5641 21.2075 12.862 21.1442 13.1545C20.9241 13.2249 20.7479 13.3468 20.9185 13.6908C20.9543 13.6447 20.9956 13.6122 21.0424 13.5906C20.9653 13.8831 20.8773 14.1701 20.7755 14.4518C20.5691 14.7118 20.4315 15.0341 20.2361 15.4133C20.2801 15.4322 20.3187 15.4512 20.3572 15.4702C20.3352 15.5162 20.3132 15.5595 20.2912 15.6029C20.1398 15.9089 19.9775 16.1987 19.8041 16.4804C19.7821 16.4966 19.7601 16.5102 19.7353 16.5264C19.7463 16.5264 19.7601 16.5291 19.7711 16.5318C19.6885 16.6645 19.6032 16.7945 19.5124 16.9218C19.4959 16.892 19.4766 16.8595 19.4491 16.8243C19.1657 17.2468 18.9098 17.7154 18.5658 18.0973C18.4172 18.2625 18.2604 18.4141 18.1008 18.5658C18.1063 18.5577 18.109 18.5496 18.1145 18.5414C17.4019 19.1346 16.7359 19.6708 15.9159 20.115C15.9214 20.1231 15.9269 20.1312 15.9324 20.1394C15.3105 20.4725 14.6501 20.7433 13.9594 20.9383C13.9567 20.9248 13.9539 20.9113 13.9512 20.9004C13.7283 20.9546 13.211 21.0683 13.1422 21.1063C13.1477 21.1144 13.1559 21.1198 13.1615 21.1306C12.9908 21.1631 12.8202 21.1929 12.6469 21.2173C12.4185 21.201 12.1846 21.201 12.113 21.2038C12.1736 21.2173 12.2121 21.239 12.2369 21.266C11.7663 21.3121 11.2848 21.3256 10.7977 21.3013C10.7317 21.2308 10.6024 21.1902 10.3024 21.1658C10.3244 21.1875 10.3437 21.2281 10.3547 21.2715C10.1868 21.2552 10.0162 21.2363 9.84563 21.2119C9.59522 21.1767 9.34757 21.1279 9.10266 21.0738C8.79722 20.9113 8.10654 20.7135 7.83962 20.719C7.70204 20.6702 7.5672 20.6187 7.43237 20.5646C7.38559 20.5104 7.31405 20.459 7.20673 20.4102C7.00585 20.3208 6.94256 20.329 6.87102 20.3235C6.71417 20.2504 6.56007 20.1719 6.40598 20.0933C6.13356 19.8658 5.8006 19.4596 5.47865 19.5435C5.30804 19.4298 5.14019 19.3133 4.97784 19.1914C4.75219 18.9883 4.52105 18.7635 4.45776 18.7039C4.32017 18.5739 4.21286 18.5089 4.11655 18.4683C3.60748 17.9944 3.14519 17.4716 2.73794 16.911C2.83149 16.8352 2.75995 16.7864 2.62511 16.7512C2.54807 16.6402 2.47377 16.5291 2.39947 16.4154C2.40498 16.4181 2.41048 16.4208 2.41323 16.4235C2.39397 16.3937 2.37196 16.3666 2.35269 16.3422C1.81886 15.4972 1.4061 14.5791 1.13643 13.6149C1.07039 12.8701 1.00435 12.101 0.792469 11.7001C0.726428 10.8659 0.764952 10.0155 0.9218 9.15968C0.963076 8.92947 1.01536 8.70739 1.06764 8.4853C1.07314 8.4853 1.0814 8.4853 1.0869 8.4853C1.13093 8.29842 1.1667 8.12238 1.21073 7.95717C1.91242 5.36798 3.59097 3.37463 5.67402 2.04753C5.77859 2.00149 5.85839 1.95545 5.90241 1.90399C6.10604 1.7794 6.31517 1.66565 6.52981 1.55461C6.69491 1.48419 6.84625 1.41919 6.96733 1.34065C7.11042 1.27565 7.25351 1.21065 7.3966 1.15107C7.39385 1.16461 7.39385 1.17815 7.38559 1.1944C7.49291 1.1619 7.60022 1.1294 7.70754 1.0969C7.69378 1.07794 7.68002 1.06169 7.66627 1.04273C7.71029 1.02648 7.75432 1.00752 7.8011 0.991272C7.8011 1.01565 7.8011 1.04273 7.7956 1.06981C9.07239 0.701478 10.3987 0.950647 11.6067 0.509184C11.7883 0.438767 11.571 0.341266 11.2545 0.25189C11.2985 0.249182 11.3453 0.246474 11.3893 0.246474C11.8791 0.525435 13.4201 1.50044 13.5907 1.1619C14.2236 1.31086 14.4245 1.80649 15.3243 1.74149C15.6215 1.9067 15.9132 2.08003 16.1966 2.25878C16.1856 2.36712 16.3617 2.44837 16.5846 2.51608C17.4266 3.08754 18.1943 3.73213 18.8575 4.45256C18.9098 4.53381 18.9841 4.60964 19.0611 4.68006C19.2648 4.91298 19.4574 5.15402 19.639 5.40319C19.8674 6.03694 20.1811 7.06883 20.5966 7.058C20.6516 7.17987 20.7039 7.30717 20.7534 7.43175C20.7369 7.65113 20.6599 7.87863 20.7534 8.18467C20.8415 7.97613 20.9213 8.04655 21.0011 8.1278C21.0149 8.17384 21.0259 8.22259 21.0396 8.26863C20.7149 8.43113 21.0809 8.92135 21.0506 9.24093C21.1084 9.18135 21.169 9.12177 21.2267 9.06218C21.246 9.15968 21.2598 9.25989 21.2763 9.35739C21.213 9.33031 21.1414 9.31135 21.0589 9.31677C21.1002 9.57677 21.1359 9.83948 21.1662 10.1022C21.2405 10.0561 21.3038 10.0372 21.3588 10.048C21.3643 10.1049 21.3698 10.1618 21.3753 10.2186C21.312 10.2349 21.246 10.2349 21.1772 10.2132C20.9846 10.8768 21.0589 11.0935 21.3973 10.8687C21.3973 10.9662 21.3946 11.0637 21.3918 11.1612L21.3808 11.1585Z" fill="#60BC2A"/>
<path d="M6.62337 10.2836C6.78847 10.0859 6.9178 9.91258 6.82699 9.90987C6.78297 9.99383 6.71142 10.0724 6.61511 10.1428C6.57384 10.1347 6.90955 9.70675 6.63437 9.49279C6.63437 9.4955 6.62887 9.4982 6.61511 9.50091C6.62887 9.50091 6.63162 9.50091 6.57384 9.50904C6.37021 9.47654 6.58484 9.47383 6.63162 9.48737C6.59035 9.45758 6.53806 9.4305 6.46652 9.41154C6.45276 9.42237 6.44175 9.43591 6.42799 9.44945C6.39497 9.37362 6.35645 9.30591 6.30692 9.24633C6.38672 9.25445 6.4445 9.26799 6.48303 9.28154C6.46927 9.25987 6.45826 9.21383 6.46927 9.2382C6.46927 9.24362 6.48028 9.24903 6.48853 9.25445C6.40598 9.16237 6.2794 9.04862 6.28766 9.05403C6.57934 9.10008 5.63825 8.70466 5.14844 8.99716C5.17321 8.9782 5.19522 8.96195 5.21999 8.94299C5.20898 8.93487 5.17596 8.96466 5.12918 9.00799C5.09891 9.02966 5.06864 9.05133 5.04113 9.07841C5.06314 9.06216 5.08515 9.0432 5.10992 9.02695C4.93106 9.20299 4.5926 9.57675 4.49629 9.42508C4.47703 9.463 4.42199 9.593 4.37521 9.74737C4.36145 9.73925 4.34769 9.73112 4.33118 9.73654C4.31467 9.74196 4.33394 9.77717 4.3642 9.78529C4.32843 9.90175 4.30091 10.029 4.29266 10.1401C4.23487 10.2647 4.21836 10.392 4.26514 10.5138C4.22111 10.6276 4.47427 10.8199 4.74119 10.9716C4.7577 10.9716 4.79622 10.9959 4.79622 10.9959C5.03287 11.1286 5.27778 11.218 5.28328 11.1584C5.29153 11.0826 5.27778 11.0366 5.25301 11.0013C5.34932 11.0068 5.44563 11.0041 5.53919 10.9986C5.50617 11.0528 5.4704 11.1151 5.43462 11.1909C4.22937 11.8193 5.67127 11.107 5.79785 10.9661C5.79785 10.9716 5.79785 10.9743 5.80335 10.9824C5.84738 10.958 5.85839 10.9499 5.83913 10.958C5.81986 10.958 5.81161 10.958 5.80335 10.958C5.81161 10.958 5.81711 10.9553 5.82537 10.9526C5.87215 10.9418 5.91893 10.9282 5.96295 10.9147C5.84738 10.977 5.75657 11.0501 5.69329 11.1286C5.76483 11.1909 6.42524 10.8009 6.35095 10.7738C6.25739 10.7711 6.19685 10.7901 6.16383 10.8334C6.16383 10.828 6.16933 10.8226 6.17208 10.8172C6.1941 10.8036 6.21611 10.7874 6.23537 10.7711C6.33994 10.7522 6.42524 10.6276 6.47753 10.4488C6.50779 10.4136 6.53806 10.3784 6.56833 10.3432C6.57108 10.2918 6.6041 10.2728 6.62337 10.2782V10.2836ZM6.70041 9.73925C6.70041 9.73925 6.70867 9.73925 6.71692 9.73383C6.71142 9.73383 6.71142 9.73383 6.70041 9.73925ZM5.5502 10.2105C5.5502 10.2105 5.56395 10.2295 5.56946 10.2376C5.53644 10.3405 5.51167 10.4353 5.49241 10.5057C5.48691 10.4055 5.50892 10.308 5.5502 10.2105ZM5.13744 10.113C5.1567 10.0615 5.18422 10.0074 5.21173 9.95321C5.22824 9.92612 5.24751 9.90175 5.26952 9.87467C5.27227 9.88008 5.27778 9.8855 5.28053 9.89092C5.19798 10.0345 5.14844 10.1861 5.12368 10.2863C5.11542 10.2295 5.12093 10.1726 5.13744 10.113ZM6.30967 9.93425C6.30967 9.93425 6.31242 9.96133 6.30967 9.98029C6.30692 9.97217 6.30417 9.96404 6.30142 9.95592C6.30142 9.94779 6.30692 9.94238 6.30967 9.93425ZM6.07853 9.07841C6.07853 9.07841 6.06477 9.07299 6.05651 9.07028C6.08128 9.05133 6.14182 9.0432 6.07853 9.07841ZM5.59973 8.96737C5.57496 8.97549 5.55295 8.96737 5.52543 8.94028C5.54469 8.93487 5.6355 8.95924 5.59973 8.96737ZM5.70154 9.05132C5.59973 9.07299 5.48415 9.11362 5.36033 9.17862C5.40986 9.10549 5.45113 9.04591 5.43738 9.04862C5.49791 9.02424 5.59697 9.02966 5.70154 9.04862V9.05132ZM5.1622 11.0257C5.1622 11.0257 5.13193 11.0122 5.11267 10.9986C5.13744 11.0013 5.15945 11.0041 5.18422 11.0068C5.17871 11.0122 5.17321 11.0176 5.1622 11.0257ZM6.62061 9.528C6.72243 9.55508 6.70592 9.57133 6.57384 9.57675C6.52155 9.57675 6.60686 9.5307 6.62061 9.528Z" fill="#60BC2A"/>
<path d="M17.8669 10.2755C17.8669 10.2755 17.8256 10.3053 17.8256 10.3216C17.8146 10.2674 17.8009 10.2132 17.7816 10.1591C17.8284 10.0345 17.8504 9.9451 17.8064 9.94781C17.7953 9.99114 17.7761 10.0345 17.7513 10.0751C17.7376 10.0372 17.721 9.99926 17.7045 9.96406C17.7155 9.8476 17.7045 9.70947 17.6192 9.60384C17.6137 9.61197 17.5807 9.62009 17.5229 9.62551C17.5147 9.62009 17.5119 9.61739 17.5119 9.61197C17.5202 9.59843 17.5477 9.57676 17.5559 9.57405C17.578 9.57947 17.5972 9.58489 17.6082 9.5903C17.5945 9.57405 17.5807 9.56051 17.5642 9.54968C17.5642 9.55238 17.5559 9.55509 17.5119 9.56322C17.4982 9.56322 17.4872 9.5578 17.4761 9.5578C17.4706 9.54968 17.4651 9.54155 17.4596 9.53343C17.4844 9.53343 17.5174 9.53072 17.5422 9.53343C17.5092 9.51176 17.4679 9.4928 17.4239 9.47926C17.3881 9.42509 17.3496 9.37363 17.3138 9.31947C17.3441 9.32488 17.3688 9.3303 17.3881 9.33572C17.3771 9.32218 17.3661 9.30051 17.3633 9.29238C17.267 9.20572 17.1432 9.10821 17.1625 9.12176C17.4349 9.15967 16.5158 8.79134 16.0975 9.05405C16.1251 9.03238 16.1498 9.00801 16.1801 8.98634C16.1691 8.97821 16.1333 9.00801 16.0893 9.05946C16.059 9.07842 16.0287 9.1028 16.004 9.12988C16.026 9.10821 16.0563 9.08926 16.0783 9.06759C15.9159 9.24634 15.6187 9.64176 15.5362 9.47926C15.5032 9.55509 15.4977 9.7176 15.5197 9.90989C15.5087 9.92885 15.5004 9.9451 15.4949 9.95864C15.3958 10.2295 15.4646 10.522 15.7178 10.7603C15.7261 10.7657 15.7426 10.7793 15.7673 10.7928C15.9077 11.0691 16.1003 11.2451 16.3369 11.1341C16.07 11.3182 16.4498 11.0962 16.3342 11.237C16.3672 11.1964 16.392 11.1666 16.4112 11.1395C16.6204 11.218 16.846 11.2289 17.0579 11.1937C17.0606 11.2478 17.0661 11.3047 17.0771 11.3724C17.0771 11.367 17.1404 11.2505 17.1735 11.1693C17.2092 11.1612 17.245 11.1503 17.278 11.1368C17.2588 11.1774 17.2478 11.2207 17.2478 11.2641C17.3028 11.2857 17.4349 11.1476 17.5284 11.0203C17.7045 10.912 17.8256 10.7739 17.8394 10.6303C17.8504 10.5274 17.8394 10.4218 17.8201 10.3189C17.8201 10.3243 17.8256 10.3297 17.8421 10.3297C18.01 10.3459 17.9054 10.243 17.8614 10.2701L17.8669 10.2755ZM17.666 9.7826C17.5835 9.60655 17.7486 9.7501 17.666 9.7826V9.7826ZM16.5323 9.01884C16.5075 9.02426 16.4883 9.01071 16.469 8.98634C16.4883 8.98363 16.5681 9.01613 16.5323 9.01884ZM16.6644 9.12176C16.5323 9.15696 16.3947 9.21655 16.2626 9.28967C16.3204 9.18946 16.3755 9.08384 16.3645 9.08926C16.425 9.06488 16.5378 9.08384 16.6644 9.12176ZM16.1911 9.12176C16.1526 9.29509 16.2296 9.02967 16.1911 9.12176V9.12176ZM15.9985 9.43051C16.0177 9.43051 16.0287 9.43051 16.037 9.43051C16.0315 9.43593 16.0232 9.44134 16.0177 9.44405C16.0095 9.44134 16.004 9.43593 16.0012 9.4278L15.9985 9.43051ZM15.9875 11.0068L16.0122 11.0339C15.993 11.0339 15.8664 11.0149 15.9875 11.0068ZM16.8515 10.7603C16.8295 10.7386 16.8212 10.7116 16.8075 10.6872C16.846 10.7224 16.89 10.7522 16.9396 10.7739C16.9148 10.7955 16.8873 10.7982 16.8515 10.763V10.7603Z" fill="#60BC2A"/>
<path d="M14.4933 14.5981C14.4796 14.6008 14.4713 14.6035 14.4658 14.6062C14.5566 14.5818 14.4356 14.8039 14.4961 14.7795C14.5126 14.7714 14.5401 14.5872 14.4906 14.6008L14.4933 14.5981Z" fill="#60BC2A"/>
<path d="M13.965 15.4512C14.02 15.4187 14.0778 15.2535 14.0998 15.2454C14.0228 15.2752 14.0035 15.4295 13.965 15.4512Z" fill="#60BC2A"/>
<path d="M13.2743 15.9414C13.3404 16.0335 13.3926 15.8033 13.3569 15.7979C13.3431 15.7952 13.2248 15.8656 13.2743 15.9414Z" fill="#60BC2A"/>
<path d="M12.6965 16.3477C12.7432 16.4912 12.9111 16.1499 12.8973 16.1608C12.8781 16.1743 12.6689 16.261 12.6965 16.3477Z" fill="#60BC2A"/>
<path d="M11.4141 16.4614C11.4252 16.735 11.7471 16.3477 11.7251 16.3531C11.6866 16.3639 11.4114 16.3666 11.4141 16.4614Z" fill="#60BC2A"/>
<path d="M8.9293 15.9468C8.93481 15.9983 9.07789 16.02 9.05863 15.9387C9.05863 15.9387 8.92655 15.8845 8.9293 15.9468Z" fill="#60BC2A"/>
</g>
<defs>
<clipPath id="clip0_16_37">
<rect width="22" height="22" fill="white"/>
</clipPath>
</defs>
</svg>
