<svg width="23" height="22" viewBox="0 0 23 22" fill="none" xmlns="http://www.w3.org/2000/svg">
<g clip-path="url(#clip0_16_55)">
<path d="M20.5415 4.1268C19.5509 2.85396 18.2091 1.85587 16.6721 1.21384C16.2939 1.05684 12.3885 -0.101054 12.3255 0.344721C12.3255 0.361543 12.5446 0.440044 12.8718 0.543778C12.8058 0.535367 12.7668 0.535367 12.7638 0.543778C12.7578 0.569011 12.8028 0.597047 12.8688 0.622279C12.6737 0.571814 12.4876 0.532564 12.4185 0.552189C12.6167 0.490509 14.2977 1.39888 14.784 1.45215C15.4084 1.51944 15.7716 1.98764 16.6451 1.9512C16.7082 1.9512 16.5731 1.85587 16.462 1.78578C16.8402 1.97082 17.2065 2.17268 17.5607 2.39417C17.3566 2.58481 17.8398 2.7334 18.2571 2.87078C18.3952 2.97171 18.5303 3.07825 18.6623 3.18479C18.5903 3.22684 18.4972 3.25768 18.4942 3.25768C18.7824 3.67262 19.3348 3.83803 19.659 4.12961C19.701 4.17447 19.743 4.21932 19.782 4.26698C19.8661 4.38193 19.9171 4.5137 19.9171 4.68472C19.9171 4.90341 20.3734 5.23143 20.5145 5.33797C20.6796 5.30432 21.0818 7.38181 21.6672 7.48274C21.7272 7.64815 21.7842 7.81356 21.8353 7.98178C21.8023 8.15 21.7602 8.33223 21.8293 8.57615C21.9103 8.5425 21.9554 8.53129 21.9884 8.53129C22.0034 8.59297 22.0214 8.65465 22.0364 8.71913C21.8353 8.90417 22.1205 9.33593 22.0694 9.61909C22.1084 9.58545 22.1475 9.55181 22.1895 9.51816C22.1985 9.58265 22.2105 9.64993 22.2195 9.71442C22.1745 9.7004 22.1235 9.69479 22.0694 9.69199C22.1144 10.191 22.1505 10.4602 22.1835 10.5919C22.1655 10.5891 22.1505 10.5863 22.1325 10.5807C21.9043 11.2172 21.9674 11.433 22.3126 11.2396C22.3126 11.3321 22.3066 11.4246 22.3006 11.5143C22.2495 11.4835 22.1955 11.4499 22.1295 11.4162C22.0154 11.8592 22.0574 12.3022 22.1865 12.6722C22.1445 12.9386 22.0904 13.2021 22.0274 13.4601C21.7842 13.5217 21.5771 13.6311 21.7542 13.9899C21.7993 13.9367 21.8533 13.903 21.9163 13.8834C21.8383 14.1441 21.7482 14.3965 21.6522 14.646C21.394 14.9095 21.2379 15.26 21.0158 15.6637C21.0668 15.6861 21.1118 15.7086 21.1539 15.7282C21.1299 15.773 21.1058 15.8151 21.0818 15.86C21.0758 15.8571 21.0698 15.8515 21.0608 15.8487C21.0608 15.8684 21.0578 15.8852 21.0548 15.9048C20.9017 16.174 20.7396 16.4375 20.5625 16.6926C20.5355 16.7094 20.5085 16.7291 20.4755 16.7459C20.4905 16.7487 20.5055 16.7487 20.5205 16.7515C20.4304 16.8805 20.3374 17.0066 20.2413 17.13C20.2263 17.0992 20.2053 17.0683 20.1783 17.0319C19.9081 17.3935 19.659 17.786 19.3528 18.1253C19.3378 18.1421 19.3227 18.1589 19.3047 18.1729C19.2747 18.2066 19.2387 18.2374 19.2057 18.2711C19.0586 18.4112 18.9025 18.5486 18.7464 18.6804C17.9989 19.2355 17.2965 19.7261 16.429 20.1299C16.435 20.1411 16.444 20.1523 16.45 20.1635C16.0448 20.357 15.6275 20.5308 15.1982 20.6794C15.1112 20.6962 15.0271 20.7186 14.9551 20.7551C14.766 20.8139 14.5769 20.8672 14.3847 20.9177C14.3787 20.8981 14.3757 20.8756 14.3697 20.856C14.1536 20.9009 13.6373 21.0018 13.5292 21.0523C13.5412 21.0719 13.5532 21.0831 13.5682 21.0971C13.3281 21.142 13.085 21.1756 12.8358 21.2036C12.6737 21.1728 12.5236 21.1476 12.4576 21.1532C12.5386 21.17 12.5866 21.1952 12.6077 21.2289C12.1574 21.2709 11.7011 21.2878 11.2388 21.2793C11.2388 21.2737 11.2388 21.2681 11.2448 21.2625C11.0197 21.2485 10.7976 21.2121 10.5814 21.1532C10.6054 21.1728 10.6235 21.2093 10.6385 21.2513C10.1462 21.2149 9.66587 21.1504 9.19759 21.0579C8.93342 20.9625 8.55219 20.87 8.27602 20.828C8.00586 20.7495 7.7387 20.6625 7.47754 20.5616C7.44752 20.5448 7.4145 20.5252 7.37548 20.5084C7.29443 20.4747 7.23739 20.4579 7.19237 20.4467C6.57699 20.1943 5.99764 19.8888 5.45431 19.5383C5.31022 19.2355 4.944 19.0505 4.54776 18.8794C3.88735 18.344 3.302 17.7356 2.79769 17.0711C2.84572 17.0178 2.80069 16.9786 2.70463 16.9506C2.01121 16.0057 1.48289 14.9488 1.14969 13.8245C1.08365 13.1152 0.999596 12.3835 0.789468 11.9994C0.72643 11.3826 0.717424 10.7546 0.771457 10.1209C0.783464 9.99758 0.795472 9.87703 0.810481 9.75367C0.837497 9.65274 0.85851 9.57424 0.864514 9.53218C0.951567 8.85651 1.05063 8.7752 1.11667 8.20046C1.12267 8.15841 1.12867 8.11916 1.13168 8.0771C1.51591 6.65847 2.1493 5.29311 3.16992 4.18568C3.50012 3.82682 3.88435 3.5072 4.2986 3.24086C4.25658 3.23245 4.22056 3.21563 4.18453 3.20161C4.23557 3.15956 4.2836 3.1147 4.33763 3.07264C4.54175 3.09507 4.68584 2.94368 5.15713 2.67453C5.64042 2.38576 6.02465 2.34931 5.82653 2.09979C5.88057 2.06895 5.9346 2.03811 5.99163 2.00727C6.00964 2.04371 6.03066 2.08297 6.04867 2.12502C6.37887 1.92877 7.15634 1.73812 7.16535 1.42411C7.21038 1.40449 7.2524 1.38486 7.29743 1.36243C7.32745 1.38767 7.33045 1.42972 7.31244 1.4886C7.4175 1.44094 7.52257 1.39327 7.62763 1.34842C7.59761 1.31758 7.56759 1.28954 7.53457 1.2587C7.58861 1.23347 7.64564 1.21104 7.69967 1.18861C7.70868 1.22506 7.71468 1.26711 7.71168 1.31197C8.96644 0.857783 10.3653 0.863391 11.533 0.316685C11.7071 0.229773 11.476 0.156879 11.1368 0.100806C11.3049 0.0699664 11.47 0.0447338 11.6231 0.0279121C11.446 0.0475375 11.2688 0.0699664 11.0947 0.095199C10.6355 0.0251085 10.0111 -0.0113385 9.92703 -0.00292769C9.89401 -0.00012407 8.5702 0.117628 8.7233 0.221362C8.26402 0.339114 7.96083 0.860587 7.50456 0.969928C7.51056 0.969928 7.51356 0.975536 7.51956 0.978339C7.46253 1.00077 7.40249 1.02039 7.34546 1.04002C7.48654 0.894231 7.17135 0.969928 7.26441 0.76246C6.99425 0.868998 5.6104 1.4914 5.65843 1.52504C5.84755 1.46897 6.03066 1.40169 6.21077 1.32599C5.67944 1.54747 3.90837 2.19511 3.74026 2.71939C3.84233 2.79228 3.92938 2.85116 4.00142 2.90162C3.9624 2.93246 3.92338 2.9633 3.88435 2.99414C3.82432 2.92405 3.77028 2.84275 3.73126 2.74462C3.15191 3.55487 1.669 4.49688 1.28777 5.85944C1.11967 6.45941 -0.0780602 8.32663 0.189102 9.03594C0.123062 9.37518 0.0720312 9.72002 0.0360093 10.0761C-0.0450401 10.9144 -0.0210254 11.7414 0.0990477 12.5517C0.0990477 12.661 0.0990477 12.7423 0.108053 12.7844C0.117059 12.7788 0.123062 12.7732 0.132068 12.7676C0.237132 13.4012 0.402232 14.0208 0.621366 14.6179C0.687406 14.8619 0.768455 15.0777 0.870517 15.2404C0.99059 15.5179 1.12267 15.7899 1.26676 16.0562C1.35681 16.7094 2.27837 17.6963 2.71664 18.1309C2.95679 18.4028 3.20894 18.6636 3.4761 18.9131C3.66822 19.1318 3.84533 19.3673 4.01943 19.6645C4.14851 19.8831 4.56877 19.9168 4.83593 20.0037C6.54097 21.1644 8.60623 21.8933 10.8756 21.9887C17.0564 22.2494 22.4206 17.9795 22.946 12.1928C23.2041 9.34714 22.3276 6.43699 20.5325 4.1268H20.5415ZM9.46475 0.196129C9.26062 0.350328 9.11353 0.378365 9.02648 0.288649C9.00547 0.26622 8.98746 0.238184 8.97245 0.201737C9.13755 0.201737 9.29965 0.201737 9.46475 0.198933V0.196129ZM8.14394 1.05123C8.04488 1.07927 8.15295 1.21104 8.09591 1.17459C8.0659 1.15497 8.04488 1.14095 8.00886 1.11011C7.99385 1.09889 7.98785 1.09048 7.97884 1.08207C8.01787 1.06525 8.05989 1.05123 8.09892 1.03441C8.11693 1.04002 8.13494 1.04563 8.14695 1.04843L8.14394 1.05123ZM6.71207 1.30917C6.60101 1.31758 6.64603 1.3344 6.68205 1.32879C6.61001 1.35963 6.53797 1.39047 6.46892 1.42411C6.40288 1.40169 6.33384 1.36524 6.2708 1.32599C6.41789 1.32038 6.56498 1.31477 6.71207 1.30917ZM5.51134 1.81942C5.64342 1.74373 5.73348 1.72971 5.80252 1.75494C5.73048 1.79419 5.65543 1.83344 5.58339 1.87269C5.55937 1.85587 5.53836 1.83905 5.51134 1.81942ZM13.2891 0.745639C13.3431 0.759657 13.3851 0.770871 13.4031 0.779282C13.3911 0.776478 13.3491 0.76246 13.2891 0.745639ZM20.5865 5.32115C20.5865 5.32115 20.5925 5.32956 20.5955 5.33516C20.5895 5.33516 20.5865 5.33516 20.5805 5.33516C20.5835 5.33236 20.5835 5.32675 20.5865 5.32115ZM20.9437 6.18186C20.9798 6.13139 21.0068 6.09214 21.0308 6.0585C21.0518 6.09775 21.0728 6.137 21.0938 6.17345C21.0458 6.17345 20.9978 6.17345 20.9437 6.17905V6.18186Z" fill="#FC0202"/>
<path d="M11.3439 15.148C11.3139 15.1115 11.2869 15.0639 11.2569 15.0162C11.2569 15.033 11.2569 15.0498 11.2509 15.0582C11.2659 15.0751 11.2809 15.0919 11.2929 15.1115C11.1608 15.0106 11.0287 14.9181 10.8937 14.8564C10.9807 14.834 11.0467 14.8536 11.0648 14.9377C11.1248 14.9489 11.1758 14.9825 11.2239 15.0302C11.2209 15.0162 11.2239 14.9994 11.2389 14.9854C11.1368 14.8003 11.0167 14.59 10.7075 14.6153C10.6955 14.6181 10.6445 14.6293 10.5394 14.6517C10.6145 14.6349 10.6595 14.6237 10.6865 14.6181C10.7015 14.6153 10.7105 14.6097 10.7105 14.6097C10.8486 14.5956 10.9807 14.6181 11.1008 14.677C11.2028 14.548 10.3743 14.5171 10.6955 14.5564C10.5815 14.5732 10.4224 14.7022 10.2633 14.8564C10.1702 14.9012 10.0712 14.9657 9.96309 15.0582C9.66891 15.3134 9.52482 15.4283 9.41075 15.4283C9.18861 14.9853 8.45317 14.2116 8.05693 14.3293C7.94586 14.3629 7.84079 14.4414 7.74173 14.548C7.72973 14.5985 7.70271 14.6153 7.6817 14.6181C7.60065 14.7134 7.5286 14.8283 7.45956 14.9489C7.45956 14.9601 7.45356 14.9713 7.44455 14.9769C7.14137 15.5405 6.98527 16.2526 7.15938 16.2358C6.82618 16.3703 7.17439 16.2974 7.05732 16.4124C7.12336 16.3619 7.1864 16.3059 7.24643 16.2498C7.20741 16.5133 7.20441 16.6928 7.24643 16.6675C7.37851 16.5806 8.30608 15.2517 8.36912 15.3302C8.6693 15.7031 8.76836 16.2274 9.3237 16.3703C10.0441 16.5554 10.0742 15.8236 10.5424 15.5937C11.2178 15.2601 11.7732 17.0124 12.6677 16.0423C12.8148 15.8825 13.151 15.1227 13.4422 15.1508C13.5923 15.1648 13.7004 15.2349 13.7994 15.319C14.0035 15.4956 14.1536 15.7479 14.5229 15.7367C15.0692 15.7227 15.0722 15.2152 15.5375 15.1311C16.0118 15.0442 16.2639 16.2638 16.6632 16.0227C16.8493 15.9105 16.8253 15.6694 16.7232 15.4255C16.7172 15.3947 16.6872 15.3302 16.6361 15.2489C16.5821 15.1508 16.5191 15.0554 16.456 14.9741C16.2129 14.6321 15.8797 14.2592 15.7776 14.4583C15.8046 14.4863 15.8347 14.5087 15.8647 14.534C15.5015 14.4386 15.2583 14.6966 15.0212 14.8928C15.0572 14.8368 15.0902 14.7779 15.0782 14.7891C15.0692 14.7947 15.0152 14.8704 14.9821 14.9265C14.9011 14.9882 14.82 15.0414 14.733 15.0667C14.691 15.0695 14.6309 15.0751 14.5619 15.0807C14.5439 15.0807 14.5289 15.0807 14.5109 15.0723C14.0126 14.9377 13.7784 14.1611 13.19 14.405C12.9589 14.3293 12.7458 14.4302 12.6227 14.9097C12.6347 14.9068 12.6437 14.904 12.6557 14.9012C12.5747 15.019 12.4906 15.148 12.3976 15.2573C12.4516 15.1059 12.5176 14.89 12.5056 14.8844C12.3615 15.061 12.1694 15.4367 11.9233 15.462C12.1874 15.3106 11.7312 15.3722 11.467 15.2489C11.425 15.2181 11.383 15.1872 11.3439 15.1564V15.148ZM7.82278 14.6489L7.76875 14.7274C7.67869 14.733 7.79276 14.6461 7.82278 14.6489ZM7.58564 14.747C7.71772 14.8227 7.58564 14.8087 7.57663 14.8003C7.56463 14.7835 7.56763 14.7639 7.58564 14.747ZM7.27045 16.0423C7.29146 16.0956 7.27045 16.1236 7.21341 16.1236C7.21641 16.1152 7.26144 15.9021 7.27045 16.0423ZM12.9529 14.548C12.9379 14.5592 12.9229 14.5676 12.9049 14.5816C12.8929 14.5928 12.8779 14.6069 12.8659 14.6209C12.8508 14.6209 12.8388 14.6209 12.8388 14.6209C12.8809 14.5452 12.9259 14.5228 12.9529 14.5508V14.548ZM12.7878 14.6517C12.7878 14.6517 12.7908 14.6489 12.8178 14.6741C12.7938 14.7078 12.7668 14.7414 12.7428 14.7779C12.7248 14.7274 12.7308 14.6209 12.7878 14.6517ZM12.2925 15.1928C12.3165 15.1676 12.3255 15.1059 12.3916 15.0919C12.3706 15.1255 12.2475 15.2461 12.2925 15.1928Z" fill="#FC0202"/>
<path d="M4.82697 12.1453C4.875 12.2041 4.93503 12.2462 5.01008 12.2742C5.23221 12.4116 5.51439 12.5153 5.8716 12.5714C6.92825 12.7368 7.77476 12.2798 8.30008 11.5733C8.39014 11.4892 8.46818 11.4023 8.52822 11.3154C8.52822 11.2789 8.53422 11.2369 8.53723 11.192C8.79538 10.6986 8.91245 10.1323 8.85842 9.58837C8.85842 9.59397 8.86142 9.59958 8.86443 9.60238C8.87943 9.60519 8.87943 9.59678 8.85842 9.57715C8.78938 8.90148 8.45918 8.25945 7.80778 7.8333C7.60366 7.69873 7.37252 7.61181 7.13537 7.55574C6.8532 7.39033 6.58604 7.33986 6.37291 7.48565C6.30086 7.48845 6.22882 7.49406 6.15678 7.50247C5.84459 7.19127 4.97106 7.69592 4.46375 8.19216C4.46975 8.19777 4.47275 8.21179 4.47876 8.22861C4.45174 8.25384 4.42772 8.27908 4.40371 8.30431C4.40371 8.28749 4.41272 8.25945 4.41872 8.23422C4.14555 8.51178 3.99846 8.77812 4.13355 8.89026C4.13355 8.89867 4.13054 8.90709 4.12754 8.9183C3.95644 8.91269 3.92042 9.06129 3.9024 9.09212C3.96844 9.07811 4.03449 9.06409 4.10053 9.05287C4.0645 9.26034 4.08552 9.39492 4.25062 9.2295C4.27163 9.20988 4.29264 9.19025 4.31366 9.17063C4.31366 9.17623 4.31366 9.17904 4.31666 9.18464C4.29865 9.17623 4.75192 8.95755 4.70389 8.98839C4.83297 8.90709 5.16617 8.53981 5.60444 8.28188C5.97066 8.11647 6.3579 8.01553 6.72712 8.04918C6.83819 8.07441 6.95226 8.11366 7.06333 8.17814C7.48058 8.07721 7.55263 8.98559 7.81679 9.10895C7.8438 9.12016 7.78377 8.81176 7.82879 8.78933C7.89784 8.91269 7.95787 9.04446 8.0029 9.18184C7.95187 9.3809 8.04793 10.2809 8.10796 10.5612C8.05093 10.8612 7.93986 11.1304 7.76876 11.3266C7.36051 11.7976 6.1958 12.1341 5.50538 11.8565C5.32827 11.6518 5.12115 11.4191 5.00408 11.3154C4.98606 11.2481 4.97406 11.178 4.97106 11.0995C4.94704 10.6033 5.25623 10.0005 5.76954 9.82667C5.76354 9.8491 5.76954 9.86873 5.80857 9.89116C5.89862 9.94162 5.92864 9.86032 5.95265 9.78462C6.0367 9.7734 6.12376 9.77621 6.21381 9.79023C6.20781 9.80144 6.2018 9.81826 6.20781 9.83789C6.22582 9.82387 6.23783 9.81266 6.24683 9.80424C6.24083 9.79864 6.23182 9.79583 6.22582 9.79303C6.23482 9.79303 6.24383 9.79303 6.25284 9.79583C6.29786 9.83508 6.34889 9.86592 6.40293 9.89676C6.40293 9.88835 6.41193 9.88275 6.41794 9.87994C6.43895 9.89396 6.45696 9.90798 6.47797 9.9248C6.47497 9.9276 6.46597 9.9276 6.45996 9.93041C6.48398 9.94442 6.50799 9.96125 6.529 9.97527C6.70611 10.1771 6.74514 10.4743 6.6821 10.6762C6.64908 10.7491 6.60105 10.8135 6.53501 10.8696C6.48097 10.8949 6.42094 10.9005 6.34889 10.8752C6.28886 10.8528 6.06672 10.1771 5.85659 10.6622C5.7095 11.0014 5.83258 11.321 6.22882 11.4051C7.32749 11.6406 7.75675 10.4603 7.12036 9.75378C6.82618 9.42856 6.51399 9.27156 6.20481 9.23511C6.16278 9.2267 6.13276 9.22389 6.11175 9.2295C5.79356 9.21548 5.48437 9.32483 5.2172 9.51828C5.11814 9.51828 5.02209 9.51547 4.93804 9.50986C4.5508 9.48463 4.41572 10.3173 4.3947 10.8164C4.30165 11.3042 4.41572 11.8004 4.83597 12.1509L4.82697 12.1453ZM8.12898 10.1463C8.13798 10.1659 8.14098 10.1855 8.14699 10.2052C8.14699 10.2444 8.14099 10.2837 8.13798 10.3229C8.13798 10.2696 8.13198 10.2136 8.12898 10.1463ZM4.90502 9.63322C4.90502 9.63322 4.89601 9.62201 4.93203 9.60519C4.93503 9.80985 4.81496 9.82948 4.68888 9.99769C4.7219 9.85471 4.79695 9.73415 4.90502 9.63322Z" fill="#FC0202"/>
<path d="M5.39427 11.4668C5.34924 11.3603 5.26219 11.3042 5.13611 11.2902C5.18414 11.3967 5.27119 11.4556 5.39427 11.4668Z" fill="#FC0202"/>
<path d="M6.35187 11.8986C6.37288 11.8958 6.37288 11.8986 6.37288 11.8986C6.53798 11.8929 6.67907 11.8341 6.79314 11.7219C6.71509 11.4724 6.42391 11.8593 6.35187 11.8986Z" fill="#FC0202"/>
<path d="M16.1438 7.70716C15.3033 7.81089 15.2162 8.02677 14.6369 8.63236C14.6279 8.61273 14.6099 8.61273 14.5889 8.62114C14.5979 8.62955 14.6039 8.64357 14.6159 8.66039L14.5588 8.73329C14.5588 8.73329 14.5498 8.67721 14.5528 8.64357C14.4027 8.77254 14.1716 9.26317 14.5708 9.29681C14.3367 9.29681 14.3757 9.45101 14.3817 9.50708C14.5018 9.43699 14.6309 9.37531 14.76 9.32205C14.76 9.32765 14.76 9.33326 14.76 9.33887C14.7329 9.37531 14.7299 9.40896 14.754 9.4398C14.751 9.58558 14.775 9.64446 14.835 9.51269C14.859 9.45942 14.886 9.40896 14.916 9.35849C14.9971 9.29401 15.0872 9.23513 15.0601 9.26037C15.1052 9.2127 15.2102 9.03608 15.3633 8.83422C15.8706 8.40246 16.5911 8.16695 17.2395 8.35199C17.3775 8.48657 17.5066 8.62955 17.5937 8.62955C17.6147 8.62955 17.5847 8.55946 17.5607 8.49217C17.6417 8.53703 17.7168 8.5903 17.7828 8.65198C17.7978 8.99122 18.3351 10.4435 18.041 9.35569C18.104 9.44821 18.188 9.7538 18.2391 10.0117C18.2151 10.2024 18.167 10.3874 18.089 10.5612C17.9149 10.7547 17.6537 11.0743 17.4316 11.2902C17.2905 11.3659 17.1314 11.4192 16.9573 11.4416C16.7171 11.4724 16.477 11.4163 16.2699 11.3042C16.2849 11.2986 16.2969 11.293 16.3119 11.2818C16.2639 11.2509 16.2158 11.2397 16.1678 11.2453C16.0267 11.1528 15.9067 11.0379 15.8166 10.9061C15.3003 10.1603 16.6751 9.93323 16.558 10.3257C16.492 10.5472 16.6331 11.1612 17.0503 10.7575C17.6657 10.1631 16.9093 9.31363 16.1738 9.35289C16.0507 9.27438 15.9517 9.26597 15.9157 9.38933C15.7686 9.42017 15.6395 9.47344 15.5284 9.53792C15.6485 9.4454 15.7506 9.31363 15.9097 9.29121C15.5975 9.32205 15.5734 9.48746 15.3933 9.61082C15.4114 9.60521 15.4294 9.5968 15.4444 9.58839C15.4384 9.59119 15.4354 9.594 15.4324 9.5996C15.4204 9.60241 15.4114 9.60521 15.3933 9.61082C15.4083 9.61082 15.4174 9.61082 15.4234 9.60521C15.2132 9.76221 15.0781 9.9809 15.0181 10.222C14.6519 10.1127 15.1922 11.8453 15.4204 11.6266C15.5044 11.7135 15.5945 11.7948 15.6965 11.8621C15.8166 11.9406 15.9397 11.9967 16.0657 12.0444C16.1558 12.106 16.2549 12.1397 16.3599 12.1285C17.4706 12.3443 18.5993 11.4724 18.8905 10.4379C19.1606 9.47344 18.7794 8.48657 17.9419 8.00715C17.9899 8.01836 18.041 8.01556 18.038 7.98191C18.0349 7.94266 17.8398 7.89781 17.8608 7.96509C17.6837 7.87538 17.4886 7.80809 17.2785 7.76043C16.9153 7.67912 16.531 7.6567 16.1468 7.70155L16.1438 7.70716ZM15.7355 7.87538C15.7446 7.90622 15.7476 7.93145 15.7476 7.94827C15.7355 7.95388 15.7235 7.95949 15.7085 7.96509C15.6965 7.94827 15.6785 7.92304 15.6605 7.8894C15.6395 7.9707 15.5704 7.78286 15.7355 7.87538ZM15.5014 7.99313C15.5224 8.02397 15.5314 8.0464 15.5404 8.06322C15.5284 8.06883 15.5194 8.07443 15.5074 8.08285C15.4924 8.06883 15.4774 8.05201 15.4744 8.0492C15.4684 8.01836 15.4744 7.99874 15.5014 7.99313ZM15.3243 8.19779C15.3243 8.19779 15.3243 8.21181 15.3213 8.21742C15.3003 8.23424 15.2793 8.24826 15.2583 8.26508C15.2553 8.23144 15.2493 8.18658 15.2463 8.13051C15.2913 7.94266 15.3213 8.0492 15.3243 8.19779ZM14.6459 9.19588C14.6459 9.19588 14.7299 8.98561 14.7389 9.1342C14.769 9.19869 14.7389 9.21551 14.6459 9.19588ZM18.125 9.14261C18.125 9.14261 18.131 9.16504 18.137 9.17626C18.128 9.17626 18.122 9.17626 18.11 9.17626C18.101 9.15102 18.11 9.14261 18.125 9.14261ZM14.9821 10.2921C14.9821 10.2921 14.9911 10.3005 14.9971 10.3033C14.9911 10.3313 14.9851 10.3594 14.9821 10.3874C14.9821 10.3678 14.9821 10.351 14.9821 10.3342C14.9701 10.3566 14.9491 10.3678 14.9821 10.2949V10.2921ZM15.3753 11.5902C15.3753 11.5902 15.3993 11.6154 15.4114 11.6266C15.4023 11.6266 15.3903 11.6126 15.3753 11.5902Z" fill="#FC0202"/>
<path d="M17.2125 11.3294C17.3505 11.2818 17.4226 11.1892 17.4376 11.0519C17.2395 10.864 17.2665 11.2762 17.2125 11.3294Z" fill="#FC0202"/>
</g>
<defs>
<clipPath id="clip0_16_55">
<rect width="23" height="22" fill="white"/>
</clipPath>
</defs>
</svg>
