<svg width="31" height="31" viewBox="0 0 31 31" fill="none" xmlns="http://www.w3.org/2000/svg">
<circle cx="15.5" cy="15.5" r="15.5" fill="black"/>
<circle cx="15.5" cy="15.5" r="14.5" stroke="white" stroke-width="2"/>
<g clip-path="url(#clip0_9_32)">
<path d="M14.6972 23.2225C15.141 23.6723 15.8618 23.6723 16.3056 23.2225L21.9867 17.4651C22.4306 17.0153 22.4306 16.2848 21.9867 15.835C21.5429 15.3852 20.8221 15.3852 20.3783 15.835L16.6358 19.6313V8.59148C16.6358 7.95457 16.1281 7.44 15.4996 7.44C14.8712 7.44 14.3634 7.95457 14.3634 8.59148V19.6277L10.621 15.8386C10.1771 15.3888 9.45634 15.3888 9.0125 15.8386C8.56867 16.2884 8.56867 17.0189 9.0125 17.4687L14.6936 23.2261L14.6972 23.2225Z" fill="white"/>
</g>
<defs>
<clipPath id="clip0_9_32">
<rect width="13.64" height="16.12" fill="white" transform="translate(8.67999 7.44)"/>
</clipPath>
</defs>
</svg>
