<svg width="102" height="93" viewBox="0 0 102 93" fill="none" xmlns="http://www.w3.org/2000/svg">
<path d="M66.1573 22.2928L69.9772 18.3267H53.5867L57.3796 22.2928V30.5808H44.809V22.2928L48.6019 18.3267H32.2656L36.0585 22.2928V46.2814L32.2656 50.2475H48.6019L44.809 46.254V37.9661H57.3796V46.254L53.5867 50.2475H69.9772L66.1573 46.2814V22.2928Z" fill="white"/>
<path d="M66.1323 15.0714H54.3203L63.0709 5.93555C64.9944 8.47937 66.1323 11.6523 66.1323 15.0714Z" fill="#C48F02"/>
<path d="M60.6051 3.33706L52.8027 11.4609V0C55.7286 0.328235 58.4107 1.53176 60.6051 3.33706Z" fill="#C48F02"/>
<path d="M49.2812 0V11.4609L41.5059 3.33706C43.6732 1.55912 46.3553 0.355588 49.2812 0Z" fill="#C48F02"/>
<path d="M39.0128 5.96289L47.7363 15.0714H35.9785C36.0056 11.6523 37.1164 8.50672 39.0128 5.96289Z" fill="#C48F02"/>
<path d="M54.6978 23.3323L51.0675 19.6396L47.4102 23.3323V28.1191H54.6978V23.3323Z" fill="#C48F02"/>
<path d="M54.6978 40.4824H47.4102V45.2692L51.0675 48.9345L54.6978 45.2692V40.4824Z" fill="#C48F02"/>
<path d="M14.9546 64.7991V74.9471C14.9546 76.9439 15.659 78.1747 16.3092 78.6124V78.6671H10.2135V78.6124C10.7825 78.1747 11.4869 76.9439 11.4869 74.9471V70.4886H4.82231V74.8377C4.82231 76.9439 5.4996 78.1747 6.09562 78.6124V78.6671H0V78.6124C0.623108 78.1747 1.35458 76.9439 1.35458 74.8377V64.7991C1.35458 62.693 0.650199 61.4621 0 61.0244V60.9697H6.09562V61.0244C5.52669 61.4621 4.82231 62.693 4.82231 64.7991V67.9447H11.5139V64.7991C11.5139 62.693 10.8367 61.4621 10.2406 61.0244V60.9697H16.3363V61.0244C15.6861 61.4621 14.9546 62.693 14.9546 64.7991Z" fill="white"/>
<path d="M35.9244 78.585V78.6397H30.2351V78.585C30.6686 78.2568 30.8583 77.2174 30.2351 75.4668L30.0726 75.0838H23.4081L23.2726 75.4668C22.6224 77.2174 22.8662 78.2568 23.2184 78.585V78.6397H17.9355V78.585C18.6128 77.9833 19.6965 76.4241 20.3738 74.4547L23.977 64.0059C24.4917 62.5015 24.0041 61.4347 23.5164 61.0244V60.9697H30.181V61.0244C29.6933 61.4621 29.2057 62.5015 29.7204 64.0059L33.432 74.4821C34.1363 76.4241 35.22 78.0106 35.9244 78.585ZM25.2774 69.668L24.2479 72.5947H29.2328L28.2304 69.668C27.6614 68.0268 27.0112 66.3036 26.7674 64.3615H26.6591C26.4423 66.3036 25.8463 68.0268 25.2774 69.668Z" fill="white"/>
<path d="M71.6041 78.585V78.6397H65.9148V78.585C66.3483 78.2568 66.5379 77.2174 65.9148 75.4668L65.7523 75.0839H59.0877L58.9523 75.4668C58.3021 77.2174 58.5459 78.2568 58.8981 78.585V78.6397H53.6152V78.585C54.2925 77.9833 55.3762 76.4242 56.0535 74.4547L59.6567 63.9786C60.1714 62.4741 59.6838 61.4074 59.1961 60.9971V60.9424H65.8607V60.9971C65.373 61.4347 64.8853 62.4741 65.4001 63.9786L69.1116 74.4547C69.816 76.4242 70.8997 78.0106 71.6041 78.585ZM60.9571 69.668L59.9276 72.5947H64.9124L63.91 69.668C63.3411 68.0268 62.6909 66.3036 62.4471 64.3615H62.3387C62.122 66.3036 61.526 68.0268 60.9571 69.668Z" fill="white"/>
<path d="M53.2075 78.1747V78.2294L48.033 79.1594C47.7079 78.1747 47.3016 77.2721 46.7597 76.3421L42.8585 69.6133H44.0777C46.245 69.6133 47.4641 68.7106 47.4641 66.4677C47.4641 64.6077 46.245 63.4315 44.0777 63.4589L42.3167 63.4862V74.9197C42.3167 76.9165 43.0211 78.1474 43.59 78.585V78.6397H37.5215V78.585C38.1717 78.1474 38.8761 76.9165 38.8761 74.8103V64.6624C38.8761 62.6656 38.1717 61.4347 37.5215 60.9971V60.9424H44.6737C48.7103 60.9424 51.0402 62.9939 51.0402 66.3036C51.0402 69.0115 49.7398 70.6527 47.6267 71.3365L49.9565 75.1659C50.9047 76.7524 51.9884 77.7918 53.2075 78.1747Z" fill="white"/>
<path d="M85.5286 65.4283L85.4744 65.4557C84.9055 64.4436 83.7135 63.5683 82.1963 63.5683H80.2999V74.6189C80.2999 76.8071 81.0043 78.1474 81.8442 78.5851V78.6398H75.3151V78.5851C76.0465 78.1474 76.8593 76.7798 76.8593 74.6189V63.5683H74.9358C73.4187 63.5683 72.2537 64.4436 71.6577 65.4557L71.6035 65.4283L72.037 60.7783C73.2019 60.9424 74.2585 60.9698 75.4776 60.9698H81.6274C82.8736 60.9698 83.9302 60.9151 85.0681 60.7783L85.5286 65.4283Z" fill="white"/>
<path d="M90.7577 78.0107L90.3242 73.7437L90.3784 73.7163C91.8955 75.6857 93.521 76.4242 95.58 76.3969C97.6119 76.3422 98.5059 75.4669 98.5059 74.0993C98.5059 72.3487 96.9617 71.6922 95.2549 70.981C93.0605 70.0784 90.6222 69.0116 90.6222 65.4831C90.6222 62.9666 92.7625 60.6416 96.6637 60.6416C97.9641 60.6416 99.1561 60.8057 100.619 61.1887L100.944 65.3463H100.89C99.8063 63.6778 98.3704 63.2675 96.9075 63.2675C94.984 63.2675 94.0087 63.924 94.0087 65.2369C94.0087 66.714 95.4174 67.2884 97.0429 67.9722C99.2915 68.9022 101.947 70.0237 101.947 73.8531C101.947 76.6704 99.8876 78.9954 95.7967 79.0501C93.819 79.0501 91.8955 78.6946 90.7577 78.0107Z" fill="white"/>
<path d="M87.2889 65.4009C87.2889 65.5103 87.316 66.1121 87.316 66.2215L88.9957 65.8933V65.4009L89.1854 62.3647C89.2396 61.7356 89.2937 61.3253 89.375 60.9697H86.8555C86.9638 61.3253 87.018 61.7356 87.0451 62.3647L87.2889 65.4009Z" fill="#C48F02"/>
<path d="M1.30078 92.9179V85.8608H2.41154V92.9179H1.30078Z" fill="#C48F02"/>
<path d="M14.9538 92.9179L14.0327 90.0185H13.4096V92.9179H12.2988V85.8608H14.0869C15.3602 85.8608 15.8749 86.49 15.8749 87.9397C15.8749 88.815 15.7124 89.4441 15.0622 89.7723L16.0917 92.8905H14.9538V92.9179ZM14.0869 86.8729H13.4096V89.0338H14.0869C14.6829 89.0338 14.7642 88.5414 14.7642 87.967C14.7642 87.3653 14.6829 86.8729 14.0869 86.8729Z" fill="#C48F02"/>
<path d="M26.0352 92.9179V85.8608H27.1188V92.9179H26.0352Z" fill="#C48F02"/>
<path d="M40.2049 92.535C39.934 92.8085 39.4463 93 38.8503 93C38.2543 93 37.7937 92.8358 37.4957 92.535C37.1706 92.2067 37.0352 91.7691 37.0352 91.0305H38.1459C38.1459 91.4135 38.173 91.6323 38.3356 91.8238C38.4439 91.9332 38.6065 92.0153 38.8503 92.0153C39.0941 92.0153 39.2838 91.9606 39.3921 91.8238C39.5276 91.6597 39.5818 91.4135 39.5818 91.0305C39.5818 90.292 39.4734 90.1006 38.9316 89.8817L38.0917 89.5261C37.3874 89.2253 37.1164 88.8423 37.1164 87.7482C37.1164 87.1191 37.3061 86.5994 37.6854 86.2438C37.9834 85.9703 38.3897 85.8062 38.8774 85.8062C39.4463 85.8062 39.8527 85.9429 40.1236 86.2438C40.4758 86.5994 40.6113 87.1191 40.6113 87.7756H39.5005C39.5005 87.4473 39.4734 87.2012 39.338 87.037C39.2296 86.9003 39.0941 86.8182 38.8503 86.8182C38.6336 86.8182 38.4981 86.9003 38.3897 87.0097C38.2543 87.1464 38.2001 87.3926 38.2001 87.6935C38.2001 88.2679 38.2814 88.432 38.769 88.6509L39.5818 88.9791C40.4216 89.3347 40.6384 89.7723 40.6384 90.9485C40.6654 91.687 40.5571 92.1794 40.2049 92.535Z" fill="#C48F02"/>
<path d="M53.0454 92.9179V89.827H51.6908V92.9179H50.5801V85.8608H51.6908V88.8423H53.0454V85.8608H54.1562V92.9179H53.0454Z" fill="#C48F02"/>
<path d="M72.226 90.1553H71.5759V92.9179H70.4922V85.8608H72.2531C73.5264 85.8608 74.0412 86.5447 74.0412 88.0217C74.0412 89.4988 73.4994 90.1553 72.226 90.1553ZM72.199 86.8729H71.5759V89.1705H72.199C72.795 89.1705 72.9304 88.7329 72.9304 88.0217C72.9304 87.3105 72.795 86.8729 72.199 86.8729Z" fill="#C48F02"/>
<path d="M87.0455 92.4802C86.7204 92.8358 86.2598 92.9999 85.7451 92.9999C85.2303 92.9999 84.7698 92.8358 84.4447 92.4802C84.1467 92.152 83.957 91.7144 83.957 91.1947V85.8882H85.0678V91.2494C85.0678 91.7417 85.3929 92.0152 85.7451 92.0152C86.1244 92.0152 86.4224 91.7691 86.4224 91.2494V85.8882H87.506V91.1947C87.5331 91.7144 87.3435 92.1794 87.0455 92.4802Z" fill="#C48F02"/>
<path d="M100.537 92.4803C100.239 92.7811 99.833 92.9179 99.1557 92.9179H97.4219V85.8608H99.1557C99.8059 85.8608 100.212 85.9976 100.51 86.2985C100.835 86.6267 100.944 86.9823 100.944 87.7482C100.944 88.2405 100.863 88.6508 100.537 88.9791C100.429 89.0885 100.321 89.1705 100.185 89.2253C100.321 89.3073 100.456 89.3894 100.565 89.4714C100.89 89.7997 100.971 90.2373 100.971 90.8938C100.998 91.7417 100.89 92.1247 100.537 92.4803ZM99.1016 86.8729H98.5597V88.7876H99.1016C99.6705 88.7876 99.8872 88.5141 99.8872 87.8303C99.8872 87.1191 99.6705 86.8729 99.1016 86.8729ZM99.0745 89.7176H98.5326V91.9058H99.0745C99.6705 91.9058 99.9143 91.6323 99.9143 90.8117C99.9143 90.0458 99.6705 89.7176 99.0745 89.7176Z" fill="#C48F02"/>
</svg>
